<svg xmlns="http://www.w3.org/2000/svg" viewBox="0 0 600 150" width="100%" height="100%">
  <defs>
    <linearGradient id="bgGradHW" x1="0%" y1="0%" x2="100%" y2="100%">
      <stop offset="0%" stop-color="#0B6F8A"/>
      <stop offset="100%" stop-color="#084C61"/>
    </linearGradient>
    <linearGradient id="heartGradHW" x1="0%" y1="0%" x2="100%" y2="100%">
      <stop offset="0%" stop-color="#13A89E"/>
      <stop offset="100%" stop-color="#0B6F8A"/>
    </linearGradient>
  </defs>

  <!-- Symbol Icon (Left) -->
  <g transform="translate(10, 10) scale(0.254)">
    <rect x="16" y="16" width="480" height="480" rx="96" fill="url(#bgGradHW)"/>
    <circle cx="100" cy="110" r="12" fill="#32B678" opacity="0.8"/>
    <circle cx="410" cy="100" r="10" fill="#32B678" opacity="0.8"/>
    <circle cx="430" cy="380" r="14" fill="#32B678" opacity="0.8"/>
    <path d="M 256 120 C 170 120 100 180 100 256 C 100 298 120 336 152 362 L 132 412 C 129 420 138 427 145 423 L 202 388 C 219 394 237 397 256 397 C 342 397 412 334 412 256 C 412 180 342 120 256 120 Z" fill="#FFFFFF"/>
    <path d="M 256 335 C 256 335 170 275 170 215 C 170 182 195 160 225 160 C 243 160 252 170 256 175 C 260 170 269 160 287 160 C 317 160 342 182 342 215 C 342 275 256 335 256 335 Z" fill="url(#heartGradHW)"/>
    <rect x="246" y="200" width="20" height="50" rx="6" fill="#FFFFFF"/>
    <rect x="231" y="215" width="50" height="20" rx="6" fill="#FFFFFF"/>
  </g>

  <!-- Brand Typography (White text for dark backgrounds) -->
  <text x="155" y="72" font-family="'Prompt', system-ui, sans-serif" font-weight="800" font-size="38" fill="#FFFFFF" letter-spacing="0.5">KHH SAFE-CONNECT</text>
  <text x="157" y="105" font-family="'Prompt', system-ui, sans-serif" font-weight="600" font-size="16" fill="#13A89E" letter-spacing="1">NCDs CARE &amp; REQUISITION PORTAL</text>
</svg>
